# Blender v2.90.1 OBJ File: 'tier_block.blend'
# www.blender.org
mtllib tier_block.mtl
o Cube
v -0.500000 -0.500000 0.500000
v -0.500000 0.500000 0.500000
v 0.500000 -0.500000 0.500000
v 0.500000 0.500000 0.500000
v -0.453125 -0.453125 0.500000
v -0.453125 0.453125 0.500000
v 0.453125 0.453125 0.500000
v 0.453125 -0.453125 0.500000
v -0.484375 -0.484375 0.500000
v -0.484375 0.484375 0.500000
v 0.484375 0.484375 0.500000
v 0.484375 -0.484375 0.500000
v -0.468750 -0.468750 0.500000
v -0.468750 0.468750 0.500000
v 0.468750 0.468750 0.500000
v 0.468750 -0.468750 0.500000
v -0.453125 -0.453125 0.484375
v -0.453125 0.453125 0.484375
v 0.453125 0.453125 0.484375
v 0.453125 -0.453125 0.484375
v -0.484375 -0.484375 0.484375
v -0.484375 0.484375 0.484375
v 0.484375 0.484375 0.484375
v 0.484375 -0.484375 0.484375
v -0.468750 -0.468750 0.484375
v -0.468750 0.468750 0.484375
v 0.468750 0.468750 0.484375
v 0.468750 -0.468750 0.484375
v 0.500000 -0.500000 0.500000
v 0.500000 0.500000 0.500000
v 0.500000 -0.500000 -0.500000
v 0.500000 0.500000 -0.500000
v 0.500000 -0.453125 0.453125
v 0.500000 0.453125 0.453125
v 0.500000 0.453125 -0.453125
v 0.500000 -0.453125 -0.453125
v 0.500000 -0.484375 0.484375
v 0.500000 0.484375 0.484375
v 0.500000 0.484375 -0.484375
v 0.500000 -0.484375 -0.484375
v 0.500000 -0.468750 0.468750
v 0.500000 0.468750 0.468750
v 0.500000 0.468750 -0.468750
v 0.500000 -0.468750 -0.468750
v 0.484375 -0.453125 0.453125
v 0.484375 0.453125 0.453125
v 0.484375 0.453125 -0.453125
v 0.484375 -0.453125 -0.453125
v 0.484375 -0.484375 0.484375
v 0.484375 0.484375 0.484375
v 0.484375 0.484375 -0.484375
v 0.484375 -0.484375 -0.484375
v 0.484375 -0.468750 0.468750
v 0.484375 0.468750 0.468750
v 0.484375 0.468750 -0.468750
v 0.484375 -0.468750 -0.468750
v 0.500000 -0.500000 -0.500000
v 0.500000 0.500000 -0.500000
v -0.500000 -0.500000 -0.500000
v -0.500000 0.500000 -0.500000
v 0.453125 -0.453125 -0.500000
v 0.453125 0.453125 -0.500000
v -0.453125 0.453125 -0.500000
v -0.453125 -0.453125 -0.500000
v 0.484375 -0.484375 -0.500000
v 0.484375 0.484375 -0.500000
v -0.484375 0.484375 -0.500000
v -0.484375 -0.484375 -0.500000
v 0.468750 -0.468750 -0.500000
v 0.468750 0.468750 -0.500000
v -0.468750 0.468750 -0.500000
v -0.468750 -0.468750 -0.500000
v 0.453125 -0.453125 -0.484375
v 0.453125 0.453125 -0.484375
v -0.453125 0.453125 -0.484375
v -0.453125 -0.453125 -0.484375
v 0.484375 -0.484375 -0.484375
v 0.484375 0.484375 -0.484375
v -0.484375 0.484375 -0.484375
v -0.484375 -0.484375 -0.484375
v 0.468750 -0.468750 -0.484375
v 0.468750 0.468750 -0.484375
v -0.468750 0.468750 -0.484375
v -0.468750 -0.468750 -0.484375
v -0.500000 -0.500000 -0.500000
v -0.500000 0.500000 -0.500000
v -0.500000 -0.500000 0.500000
v -0.500000 0.500000 0.500000
v -0.500000 -0.453125 -0.453125
v -0.500000 0.453125 -0.453125
v -0.500000 0.453125 0.453125
v -0.500000 -0.453125 0.453125
v -0.500000 -0.484375 -0.484375
v -0.500000 0.484375 -0.484375
v -0.500000 0.484375 0.484375
v -0.500000 -0.484375 0.484375
v -0.500000 -0.468750 -0.468750
v -0.500000 0.468750 -0.468750
v -0.500000 0.468750 0.468750
v -0.500000 -0.468750 0.468750
v -0.484375 -0.453125 -0.453125
v -0.484375 0.453125 -0.453125
v -0.484375 0.453125 0.453125
v -0.484375 -0.453125 0.453125
v -0.484375 -0.484375 -0.484375
v -0.484375 0.484375 -0.484375
v -0.484375 0.484375 0.484375
v -0.484375 -0.484375 0.484375
v -0.484375 -0.468750 -0.468750
v -0.484375 0.468750 -0.468750
v -0.484375 0.468750 0.468750
v -0.484375 -0.468750 0.468750
v -0.500000 0.500000 0.500000
v -0.500000 0.500000 -0.500000
v 0.500000 0.500000 0.500000
v 0.500000 0.500000 -0.500000
v -0.453125 0.500000 0.453125
v -0.453125 0.500000 -0.453125
v 0.453125 0.500000 -0.453125
v 0.453125 0.500000 0.453125
v -0.484375 0.500000 0.484375
v -0.484375 0.500000 -0.484375
v 0.484375 0.500000 -0.484375
v 0.484375 0.500000 0.484375
v -0.468750 0.500000 0.468750
v -0.468750 0.500000 -0.468750
v 0.468750 0.500000 -0.468750
v 0.468750 0.500000 0.468750
v -0.453125 0.484375 0.453125
v -0.453125 0.484375 -0.453125
v 0.453125 0.484375 -0.453125
v 0.453125 0.484375 0.453125
v -0.484375 0.484375 0.484375
v -0.484375 0.484375 -0.484375
v 0.484375 0.484375 -0.484375
v 0.484375 0.484375 0.484375
v -0.468750 0.484375 0.468750
v -0.468750 0.484375 -0.468750
v 0.468750 0.484375 -0.468750
v 0.468750 0.484375 0.468750
v -0.500000 -0.500000 -0.500000
v -0.500000 -0.500000 0.500000
v 0.500000 -0.500000 -0.500000
v 0.500000 -0.500000 0.500000
v -0.453125 -0.500000 -0.453125
v -0.453125 -0.500000 0.453125
v 0.453125 -0.500000 0.453125
v 0.453125 -0.500000 -0.453125
v -0.484375 -0.500000 -0.484375
v -0.484375 -0.500000 0.484375
v 0.484375 -0.500000 0.484375
v 0.484375 -0.500000 -0.484375
v -0.468750 -0.500000 -0.468750
v -0.468750 -0.500000 0.468750
v 0.468750 -0.500000 0.468750
v 0.468750 -0.500000 -0.468750
v -0.453125 -0.484375 -0.453125
v -0.453125 -0.484375 0.453125
v 0.453125 -0.484375 0.453125
v 0.453125 -0.484375 -0.453125
v -0.484375 -0.484375 -0.484375
v -0.484375 -0.484375 0.484375
v 0.484375 -0.484375 0.484375
v 0.484375 -0.484375 -0.484375
v -0.468750 -0.484375 -0.468750
v -0.468750 -0.484375 0.468750
v 0.468750 -0.484375 0.468750
v 0.468750 -0.484375 -0.468750
v 0.459146 0.459147 -0.459147
v 0.459146 -0.459147 -0.459147
v -0.459146 -0.459147 0.459147
v -0.459146 0.459147 0.459147
v -0.459147 0.459147 -0.459146
v -0.459147 -0.459147 -0.459146
v 0.459147 -0.459147 0.459147
v 0.459147 0.459147 0.459147
vt 0.650554 0.389711
vt 0.802066 0.389711
vt 0.802066 0.389711
vt 0.650554 0.389711
vt 0.668656 0.683421
vt 0.668656 0.871796
vt 0.665618 0.874834
vt 0.665618 0.680383
vt 0.857031 0.871796
vt 0.857031 0.683421
vt 0.860070 0.680383
vt 0.860070 0.874834
vt 0.804679 0.387099
vt 0.647941 0.387099
vt 0.647941 0.387099
vt 0.804679 0.387099
vt 0.668656 0.683421
vt 0.668656 0.871796
vt 0.857031 0.683421
vt 0.804679 0.543836
vt 0.804679 0.543836
vt 0.650554 0.541224
vt 0.647941 0.543836
vt 0.802066 0.541224
vt 0.650554 0.541224
vt 0.802066 0.541224
vt 0.082822 0.771842
vt 0.082822 0.902823
vt 0.080639 0.905006
vt 0.080639 0.769659
vt 0.213804 0.902823
vt 0.213804 0.771842
vt 0.215987 0.769659
vt 0.215987 0.905006
vt 0.857031 0.871796
vt 0.647941 0.543836
vt 0.650554 0.389711
vt 0.802066 0.389711
vt 0.802066 0.389711
vt 0.650554 0.389711
vt 0.668656 0.683421
vt 0.668656 0.871796
vt 0.665618 0.874834
vt 0.665618 0.680383
vt 0.857031 0.871796
vt 0.857031 0.683421
vt 0.860070 0.680383
vt 0.860070 0.874834
vt 0.804679 0.387099
vt 0.647941 0.387099
vt 0.647941 0.387099
vt 0.804679 0.387099
vt 0.668656 0.683421
vt 0.668656 0.871796
vt 0.857031 0.683421
vt 0.804679 0.543836
vt 0.804679 0.543836
vt 0.650554 0.541224
vt 0.647941 0.543836
vt 0.802066 0.541224
vt 0.650554 0.541224
vt 0.802066 0.541224
vt 0.082822 0.771842
vt 0.082822 0.902823
vt 0.080639 0.905006
vt 0.080639 0.769659
vt 0.213804 0.902823
vt 0.213804 0.771842
vt 0.215987 0.769659
vt 0.215987 0.905006
vt 0.857031 0.871796
vt 0.647941 0.543836
vt 0.650554 0.389711
vt 0.802066 0.389711
vt 0.802066 0.389711
vt 0.650554 0.389711
vt 0.668656 0.683421
vt 0.668656 0.871796
vt 0.665618 0.874834
vt 0.665618 0.680383
vt 0.857031 0.871796
vt 0.857031 0.683421
vt 0.860070 0.680383
vt 0.860070 0.874834
vt 0.804679 0.387099
vt 0.647941 0.387099
vt 0.647941 0.387099
vt 0.804679 0.387099
vt 0.668656 0.683421
vt 0.668656 0.871796
vt 0.857031 0.683421
vt 0.804679 0.543836
vt 0.804679 0.543836
vt 0.650554 0.541224
vt 0.647941 0.543836
vt 0.802066 0.541224
vt 0.650554 0.541224
vt 0.802066 0.541224
vt 0.082822 0.771842
vt 0.082822 0.902823
vt 0.080639 0.905006
vt 0.080639 0.769659
vt 0.213804 0.902823
vt 0.213804 0.771842
vt 0.215987 0.769659
vt 0.215987 0.905006
vt 0.857031 0.871796
vt 0.647941 0.543836
vt 0.650554 0.389711
vt 0.802066 0.389711
vt 0.802066 0.389711
vt 0.650554 0.389711
vt 0.668656 0.683421
vt 0.668656 0.871796
vt 0.665618 0.874834
vt 0.665618 0.680383
vt 0.857031 0.871796
vt 0.857031 0.683421
vt 0.860070 0.680383
vt 0.860070 0.874834
vt 0.804679 0.387099
vt 0.647941 0.387099
vt 0.647941 0.387099
vt 0.804679 0.387099
vt 0.668656 0.683421
vt 0.668656 0.871796
vt 0.857031 0.683421
vt 0.804679 0.543836
vt 0.804679 0.543836
vt 0.650554 0.541224
vt 0.647941 0.543836
vt 0.802066 0.541224
vt 0.650554 0.541224
vt 0.802066 0.541224
vt 0.082822 0.771842
vt 0.082822 0.902823
vt 0.080639 0.905006
vt 0.080639 0.769659
vt 0.213804 0.902823
vt 0.213804 0.771842
vt 0.215987 0.769659
vt 0.215987 0.905006
vt 0.857031 0.871796
vt 0.647941 0.543836
vt 0.650554 0.389711
vt 0.802066 0.389711
vt 0.802066 0.389711
vt 0.650554 0.389711
vt 0.668656 0.683421
vt 0.668656 0.871796
vt 0.665618 0.874834
vt 0.665618 0.680383
vt 0.857031 0.871796
vt 0.857031 0.683421
vt 0.860070 0.680383
vt 0.860070 0.874834
vt 0.804679 0.387099
vt 0.647941 0.387099
vt 0.647941 0.387099
vt 0.804679 0.387099
vt 0.668656 0.683421
vt 0.668656 0.871796
vt 0.857031 0.683421
vt 0.804679 0.543836
vt 0.804679 0.543836
vt 0.650554 0.541224
vt 0.647941 0.543836
vt 0.802066 0.541224
vt 0.650554 0.541224
vt 0.802066 0.541224
vt 0.082822 0.771842
vt 0.082822 0.902823
vt 0.080639 0.905006
vt 0.080639 0.769659
vt 0.213804 0.902823
vt 0.213804 0.771842
vt 0.215987 0.769659
vt 0.215987 0.905006
vt 0.857031 0.871796
vt 0.647941 0.543836
vt 0.650554 0.389711
vt 0.802066 0.389711
vt 0.802066 0.389711
vt 0.650554 0.389711
vt 0.668656 0.683421
vt 0.668656 0.871796
vt 0.665618 0.874834
vt 0.665618 0.680383
vt 0.857031 0.871796
vt 0.857031 0.683421
vt 0.860070 0.680383
vt 0.860070 0.874834
vt 0.804679 0.387099
vt 0.647941 0.387099
vt 0.647941 0.387099
vt 0.804679 0.387099
vt 0.668656 0.683421
vt 0.668656 0.871796
vt 0.857031 0.683421
vt 0.804679 0.543836
vt 0.804679 0.543836
vt 0.650554 0.541224
vt 0.647941 0.543836
vt 0.802066 0.541224
vt 0.650554 0.541224
vt 0.802066 0.541224
vt 0.082822 0.771842
vt 0.082822 0.902823
vt 0.080639 0.905006
vt 0.080639 0.769659
vt 0.213804 0.902823
vt 0.213804 0.771842
vt 0.215987 0.769659
vt 0.215987 0.905006
vt 0.857031 0.871796
vt 0.647941 0.543836
vt 0.953125 0.046875
vt 0.953125 0.953125
vt 0.046875 0.953125
vt 0.046875 0.046875
vt 0.953125 0.046875
vt 0.953125 0.953125
vt 0.046875 0.953125
vt 0.046875 0.046875
vt 0.953125 0.046875
vt 0.953125 0.953125
vt 0.046875 0.953125
vt 0.046875 0.046875
vt 0.953125 0.046875
vt 0.953125 0.953125
vt 0.046875 0.953125
vt 0.046875 0.046875
vt 0.953125 0.046875
vt 0.953125 0.953125
vt 0.046875 0.953125
vt 0.046875 0.046875
vt 0.953125 0.046875
vt 0.953125 0.953125
vt 0.046875 0.953125
vt 0.046875 0.046875
vt 0.953125 0.046875
vt 0.953125 0.953125
vt 0.046875 0.953125
vt 0.046875 0.046875
vt 0.953125 0.046875
vt 0.953125 0.953125
vt 0.046875 0.953125
vt 0.046875 0.046875
vt 0.953125 0.046875
vt 0.953125 0.953125
vt 0.046875 0.953125
vt 0.046875 0.046875
vt 0.953125 0.046875
vt 0.953125 0.953125
vt 0.046875 0.953125
vt 0.046875 0.046875
vn 0.0000 1.0000 0.0000
vn 0.0000 0.0000 1.0000
vn 0.0000 -1.0000 0.0000
vn 1.0000 0.0000 0.0000
vn -1.0000 0.0000 0.0000
vn 0.0000 0.0000 -1.0000
usemtl lid
s off
f 5/1/1 8/2/1 20/3/1 17/4/1
f 9/5/2 10/6/2 2/7/2 1/8/2
f 11/9/2 12/10/2 3/11/2 4/12/2
f 12/10/2 9/5/2 1/8/2 3/11/2
f 10/6/2 11/9/2 4/12/2 2/7/2
f 16/13/3 13/14/3 25/15/3 28/16/3
f 10/6/4 9/5/4 21/17/4 22/18/4
f 9/5/1 12/10/1 24/19/1 21/17/1
f 15/20/4 16/13/4 28/16/4 27/21/4
f 5/1/2 6/22/2 14/23/2 13/14/2
f 7/24/2 8/2/2 16/13/2 15/20/2
f 8/2/2 5/1/2 13/14/2 16/13/2
f 6/22/2 7/24/2 15/20/2 14/23/2
f 6/22/4 5/1/4 17/4/4 18/25/4
f 7/24/3 6/22/3 18/25/3 19/26/3
f 8/2/5 7/24/5 19/26/5 20/3/5
f 25/27/2 26/28/2 22/29/2 21/30/2
f 27/31/2 28/32/2 24/33/2 23/34/2
f 28/32/2 25/27/2 21/30/2 24/33/2
f 26/28/2 27/31/2 23/34/2 22/29/2
f 11/9/3 10/6/3 22/18/3 23/35/3
f 13/14/5 14/23/5 26/36/5 25/15/5
f 12/10/5 11/9/5 23/35/5 24/19/5
f 14/23/1 15/20/1 27/21/1 26/36/1
f 33/37/1 36/38/1 48/39/1 45/40/1
f 37/41/4 38/42/4 30/43/4 29/44/4
f 39/45/4 40/46/4 31/47/4 32/48/4
f 40/46/4 37/41/4 29/44/4 31/47/4
f 38/42/4 39/45/4 32/48/4 30/43/4
f 44/49/3 41/50/3 53/51/3 56/52/3
f 38/42/6 37/41/6 49/53/6 50/54/6
f 37/41/1 40/46/1 52/55/1 49/53/1
f 43/56/6 44/49/6 56/52/6 55/57/6
f 33/37/4 34/58/4 42/59/4 41/50/4
f 35/60/4 36/38/4 44/49/4 43/56/4
f 36/38/4 33/37/4 41/50/4 44/49/4
f 34/58/4 35/60/4 43/56/4 42/59/4
f 34/58/6 33/37/6 45/40/6 46/61/6
f 35/60/3 34/58/3 46/61/3 47/62/3
f 36/38/2 35/60/2 47/62/2 48/39/2
f 53/63/4 54/64/4 50/65/4 49/66/4
f 55/67/4 56/68/4 52/69/4 51/70/4
f 56/68/4 53/63/4 49/66/4 52/69/4
f 54/64/4 55/67/4 51/70/4 50/65/4
f 39/45/3 38/42/3 50/54/3 51/71/3
f 41/50/2 42/59/2 54/72/2 53/51/2
f 40/46/2 39/45/2 51/71/2 52/55/2
f 42/59/1 43/56/1 55/57/1 54/72/1
f 61/73/1 64/74/1 76/75/1 73/76/1
f 65/77/6 66/78/6 58/79/6 57/80/6
f 67/81/6 68/82/6 59/83/6 60/84/6
f 68/82/6 65/77/6 57/80/6 59/83/6
f 66/78/6 67/81/6 60/84/6 58/79/6
f 72/85/3 69/86/3 81/87/3 84/88/3
f 66/78/5 65/77/5 77/89/5 78/90/5
f 65/77/1 68/82/1 80/91/1 77/89/1
f 71/92/5 72/85/5 84/88/5 83/93/5
f 61/73/6 62/94/6 70/95/6 69/86/6
f 63/96/6 64/74/6 72/85/6 71/92/6
f 64/74/6 61/73/6 69/86/6 72/85/6
f 62/94/6 63/96/6 71/92/6 70/95/6
f 62/94/5 61/73/5 73/76/5 74/97/5
f 63/96/3 62/94/3 74/97/3 75/98/3
f 64/74/4 63/96/4 75/98/4 76/75/4
f 81/99/6 82/100/6 78/101/6 77/102/6
f 83/103/6 84/104/6 80/105/6 79/106/6
f 84/104/6 81/99/6 77/102/6 80/105/6
f 82/100/6 83/103/6 79/106/6 78/101/6
f 67/81/3 66/78/3 78/90/3 79/107/3
f 69/86/4 70/95/4 82/108/4 81/87/4
f 68/82/4 67/81/4 79/107/4 80/91/4
f 70/95/1 71/92/1 83/93/1 82/108/1
f 89/109/1 92/110/1 104/111/1 101/112/1
f 93/113/5 94/114/5 86/115/5 85/116/5
f 95/117/5 96/118/5 87/119/5 88/120/5
f 96/118/5 93/113/5 85/116/5 87/119/5
f 94/114/5 95/117/5 88/120/5 86/115/5
f 100/121/3 97/122/3 109/123/3 112/124/3
f 94/114/2 93/113/2 105/125/2 106/126/2
f 93/113/1 96/118/1 108/127/1 105/125/1
f 99/128/2 100/121/2 112/124/2 111/129/2
f 89/109/5 90/130/5 98/131/5 97/122/5
f 91/132/5 92/110/5 100/121/5 99/128/5
f 92/110/5 89/109/5 97/122/5 100/121/5
f 90/130/5 91/132/5 99/128/5 98/131/5
f 90/130/2 89/109/2 101/112/2 102/133/2
f 91/132/3 90/130/3 102/133/3 103/134/3
f 92/110/6 91/132/6 103/134/6 104/111/6
f 109/135/5 110/136/5 106/137/5 105/138/5
f 111/139/5 112/140/5 108/141/5 107/142/5
f 112/140/5 109/135/5 105/138/5 108/141/5
f 110/136/5 111/139/5 107/142/5 106/137/5
f 95/117/3 94/114/3 106/126/3 107/143/3
f 97/122/6 98/131/6 110/144/6 109/123/6
f 96/118/6 95/117/6 107/143/6 108/127/6
f 98/131/1 99/128/1 111/129/1 110/144/1
f 117/145/6 120/146/6 132/147/6 129/148/6
f 121/149/1 122/150/1 114/151/1 113/152/1
f 123/153/1 124/154/1 115/155/1 116/156/1
f 124/154/1 121/149/1 113/152/1 115/155/1
f 122/150/1 123/153/1 116/156/1 114/151/1
f 128/157/2 125/158/2 137/159/2 140/160/2
f 122/150/4 121/149/4 133/161/4 134/162/4
f 121/149/6 124/154/6 136/163/6 133/161/6
f 127/164/4 128/157/4 140/160/4 139/165/4
f 117/145/1 118/166/1 126/167/1 125/158/1
f 119/168/1 120/146/1 128/157/1 127/164/1
f 120/146/1 117/145/1 125/158/1 128/157/1
f 118/166/1 119/168/1 127/164/1 126/167/1
f 118/166/4 117/145/4 129/148/4 130/169/4
f 119/168/2 118/166/2 130/169/2 131/170/2
f 120/146/5 119/168/5 131/170/5 132/147/5
f 137/171/1 138/172/1 134/173/1 133/174/1
f 139/175/1 140/176/1 136/177/1 135/178/1
f 140/176/1 137/171/1 133/174/1 136/177/1
f 138/172/1 139/175/1 135/178/1 134/173/1
f 123/153/2 122/150/2 134/162/2 135/179/2
f 125/158/5 126/167/5 138/180/5 137/159/5
f 124/154/5 123/153/5 135/179/5 136/163/5
f 126/167/6 127/164/6 139/165/6 138/180/6
f 145/181/2 148/182/2 160/183/2 157/184/2
f 149/185/3 150/186/3 142/187/3 141/188/3
f 151/189/3 152/190/3 143/191/3 144/192/3
f 152/190/3 149/185/3 141/188/3 143/191/3
f 150/186/3 151/189/3 144/192/3 142/187/3
f 156/193/6 153/194/6 165/195/6 168/196/6
f 150/186/4 149/185/4 161/197/4 162/198/4
f 149/185/2 152/190/2 164/199/2 161/197/2
f 155/200/4 156/193/4 168/196/4 167/201/4
f 145/181/3 146/202/3 154/203/3 153/194/3
f 147/204/3 148/182/3 156/193/3 155/200/3
f 148/182/3 145/181/3 153/194/3 156/193/3
f 146/202/3 147/204/3 155/200/3 154/203/3
f 146/202/4 145/181/4 157/184/4 158/205/4
f 147/204/6 146/202/6 158/205/6 159/206/6
f 148/182/5 147/204/5 159/206/5 160/183/5
f 165/207/3 166/208/3 162/209/3 161/210/3
f 167/211/3 168/212/3 164/213/3 163/214/3
f 168/212/3 165/207/3 161/210/3 164/213/3
f 166/208/3 167/211/3 163/214/3 162/209/3
f 151/189/6 150/186/6 162/198/6 163/215/6
f 153/194/5 154/203/5 166/216/5 165/195/5
f 152/190/5 151/189/5 163/215/5 164/199/5
f 154/203/2 155/200/2 167/201/2 166/216/2
usemtl glass_tier_creative
f 20/217/2 19/218/2 18/219/2 17/220/2
f 48/221/4 47/222/4 46/223/4 45/224/4
f 76/225/6 75/226/6 74/227/6 73/228/6
f 104/229/5 103/230/5 102/231/5 101/232/5
usemtl essence_tier_creative
f 170/233/4 169/234/4 176/235/4 175/236/4
f 174/237/6 173/238/6 169/239/6 170/240/6
f 171/241/5 172/242/5 173/243/5 174/244/5
f 175/245/2 176/246/2 172/247/2 171/248/2
f 174/237/3 170/240/3 175/236/3 171/248/3
f 172/247/1 176/246/1 169/234/1 173/238/1
usemtl glass
f 132/249/1 131/250/1 130/251/1 129/252/1
f 160/253/3 159/254/3 158/255/3 157/256/3
