# Blender v2.90.1 OBJ File: 'vial.blend'
# www.blender.org
mtllib essence.mtl
o essence
v 0.079946 -0.449783 -0.079946
v 0.099662 -0.464252 0.000000
v 0.079946 -0.449783 0.079946
v -0.000000 -0.464252 0.099662
v -0.079946 -0.449783 0.079946
v -0.099662 -0.464252 0.000000
v -0.079946 -0.449783 -0.079946
v 0.000000 -0.464252 -0.099662
v 0.092489 -0.380946 0.092489
v 0.075949 -0.294369 0.075949
v 0.000000 -0.294337 0.104273
v -0.075949 -0.294369 0.075949
v -0.092489 -0.380946 0.092489
v -0.104273 -0.294337 0.000000
v -0.075949 -0.294369 -0.075949
v -0.092489 -0.380946 -0.092489
v 0.000000 -0.294337 -0.104273
v 0.075949 -0.294369 -0.075949
v 0.092489 -0.380946 -0.092489
v 0.104273 -0.294337 -0.000000
v 0.051745 -0.251628 0.051745
v -0.051745 -0.251628 0.051745
v -0.051745 -0.251628 -0.051745
v 0.051745 -0.251628 -0.051745
v -0.000000 -0.494348 0.000000
v -0.000000 -0.382427 0.127612
v -0.127612 -0.382427 0.000000
v -0.000000 -0.382427 -0.127612
v 0.127612 -0.382427 -0.000000
v 0.000000 -0.251566 0.070978
v -0.070978 -0.251566 0.000000
v -0.000000 -0.251566 -0.070978
v 0.070978 -0.251566 -0.000000
vt 0.813238 0.183572
vt 0.890488 0.123970
vt 0.500000 0.000000
vt 0.500000 0.123970
vt 0.109513 0.123970
vt 0.186762 0.183572
vt 0.500000 0.123970
vt 0.186762 0.183572
vt 0.813238 0.183572
vt 0.797576 0.823700
vt 0.862384 0.467106
vt 0.500000 0.461007
vt 0.500000 0.823841
vt 0.137615 0.467106
vt 0.202424 0.823700
vt 0.000000 0.461007
vt 0.091447 0.823841
vt 0.137615 0.467106
vt 0.202424 0.823700
vt 0.500000 0.461007
vt 0.500000 0.823841
vt 0.862384 0.467106
vt 0.797576 0.823700
vt 1.000000 0.461007
vt 0.908553 0.823841
vt 0.500000 1.000000
vt 0.297258 0.999755
vt 0.702742 0.999755
vt 0.221899 1.000000
vt 0.297258 0.999755
vt 0.500000 1.000000
vt 0.702742 0.999755
vt 0.778102 1.000000
vn -0.2593 0.9303 -0.2593
vn 0.2593 0.9303 -0.2593
vn 0.2593 0.9303 0.2593
vn -0.2593 0.9303 0.2593
vn -0.3404 -0.2398 -0.9092
vn 0.3404 -0.2398 -0.9092
vn 0.3144 0.2707 -0.9099
vn -0.3144 0.2707 -0.9099
vn 0.9092 -0.2398 -0.3404
vn 0.9092 -0.2398 0.3404
vn 0.9099 0.2707 0.3144
vn 0.9099 0.2707 -0.3144
vn 0.3404 -0.2398 0.9092
vn -0.3404 -0.2398 0.9092
vn -0.3144 0.2707 0.9099
vn 0.3144 0.2707 0.9099
vn -0.9092 -0.2398 0.3404
vn -0.9092 -0.2398 -0.3404
vn -0.9099 0.2707 -0.3144
vn -0.9099 0.2707 0.3144
vn 0.2824 -0.5890 -0.7571
vn -0.2824 -0.5890 -0.7571
vn 0.7571 -0.5890 0.2824
vn 0.7571 -0.5890 -0.2824
vn -0.2824 -0.5890 0.7571
vn 0.2824 -0.5890 0.7571
vn -0.7571 -0.5890 -0.2824
vn -0.7571 -0.5890 0.2824
vn 0.0019 -1.0000 -0.0019
vn 0.0019 -1.0000 0.0019
vn -0.0019 -1.0000 0.0019
vn -0.0019 -1.0000 -0.0019
vn 0.0000 -1.0000 0.0000
usemtl essence_tier_6
s off
f 3/1/1 2/2/1 25/3/1 4/4/1
f 4/4/2 25/3/2 6/5/2 5/6/2
f 25/3/3 8/7/3 7/8/3 6/5/3
f 2/2/4 1/9/4 8/7/4 25/3/4
f 10/10/5 9/11/5 26/12/5 11/13/5
f 11/13/6 26/12/6 13/14/6 12/15/6
f 26/12/7 4/4/7 5/6/7 13/14/7
f 9/11/8 3/1/8 4/4/8 26/12/8
f 12/15/9 13/14/9 27/16/9 14/17/9
f 14/17/10 27/16/10 16/18/10 15/19/10
f 27/16/11 6/5/11 7/8/11 16/18/11
f 13/14/12 5/6/12 6/5/12 27/16/12
f 15/19/13 16/18/13 28/20/13 17/21/13
f 17/21/14 28/20/14 19/22/14 18/23/14
f 28/20/15 8/7/15 1/9/15 19/22/15
f 16/18/16 7/8/16 8/7/16 28/20/16
f 18/23/17 19/22/17 29/24/17 20/25/17
f 20/25/18 29/24/18 9/11/18 10/10/18
f 29/24/19 2/2/19 3/1/19 9/11/19
f 19/22/20 1/9/20 2/2/20 29/24/20
f 30/26/21 11/13/21 12/15/21 22/27/21
f 21/28/22 10/10/22 11/13/22 30/26/22
f 31/29/23 14/17/23 15/19/23 23/30/23
f 22/27/24 12/15/24 14/17/24 31/29/24
f 32/31/25 17/21/25 18/23/25 24/32/25
f 23/30/26 15/19/26 17/21/26 32/31/26
f 33/33/27 20/25/27 10/10/27 21/28/27
f 24/32/28 18/23/28 20/25/28 33/33/28
f 30/26/29 22/27/29 31/29/29
f 31/29/30 23/30/30 32/31/30
f 32/31/31 24/32/31 33/33/31
f 33/33/32 21/28/32 30/26/32
f 32/31/33 33/33/33 30/26/33 31/29/33
o glass
v 0.083182 -0.453100 0.083182
v -0.083182 -0.453100 0.083182
v -0.083182 -0.453100 -0.083182
v 0.083182 -0.453100 -0.083182
v 0.079555 -0.291934 0.079555
v -0.079555 -0.291934 0.079555
v -0.079555 -0.291934 -0.079555
v 0.079555 -0.291934 -0.079555
v 0.038054 -0.217720 0.038054
v -0.038054 -0.217720 0.038054
v -0.038054 -0.217720 -0.038054
v 0.038054 -0.217720 -0.038054
v 0.049520 -0.105052 0.049520
v -0.049520 -0.105052 0.049520
v -0.049520 -0.105052 -0.049520
v 0.049520 -0.105052 -0.049520
v 0.079201 -0.062953 0.079201
v -0.079201 -0.062953 0.079201
v -0.079201 -0.062953 -0.079201
v 0.079201 -0.062953 -0.079201
v 0.103671 -0.468236 0.000000
v -0.000000 -0.468236 0.103671
v -0.103671 -0.468236 0.000000
v 0.000000 -0.468236 -0.103671
v 0.096485 -0.381045 0.096485
v 0.000000 -0.291934 0.109389
v -0.096485 -0.381045 0.096485
v -0.109389 -0.291934 0.000000
v -0.096485 -0.381045 -0.096485
v 0.000000 -0.291934 -0.109389
v 0.096485 -0.381045 -0.096485
v 0.109389 -0.291934 -0.000000
v 0.054880 -0.248122 0.054880
v -0.000000 -0.217720 0.052324
v -0.054880 -0.248122 0.054880
v -0.052324 -0.217720 -0.000000
v -0.054880 -0.248122 -0.054880
v 0.000000 -0.217720 -0.052324
v 0.054880 -0.248122 -0.054880
v 0.052324 -0.217720 0.000000
v 0.037181 -0.161386 0.037181
v 0.000000 -0.105052 0.068090
v -0.037181 -0.161386 0.037181
v -0.068090 -0.105052 0.000000
v -0.037181 -0.161386 -0.037181
v -0.000000 -0.105052 -0.068090
v 0.037181 -0.161386 -0.037181
v 0.068090 -0.105052 -0.000000
v 0.068018 -0.078664 0.068018
v 0.000000 -0.062953 0.108901
v -0.068018 -0.078664 0.068018
v -0.108901 -0.062953 0.000000
v -0.068018 -0.078664 -0.068018
v -0.000000 -0.062953 -0.108901
v 0.068018 -0.078664 -0.068018
v 0.108901 -0.062953 -0.000000
v -0.000000 -0.500000 0.000000
v 0.000000 -0.382537 0.133263
v -0.133263 -0.382537 0.000000
v -0.000000 -0.382537 -0.133263
v 0.133263 -0.382537 -0.000000
v 0.000000 -0.248122 0.075459
v -0.075459 -0.248122 0.000000
v -0.000000 -0.248122 -0.075459
v 0.075459 -0.248122 -0.000000
v 0.000000 -0.161386 0.051123
v -0.051123 -0.161386 0.000000
v -0.000000 -0.161386 -0.051123
v 0.051123 -0.161386 -0.000000
v 0.000000 -0.078664 0.093524
v -0.093524 -0.078664 0.000000
v -0.000000 -0.078664 -0.093524
v 0.093524 -0.078664 -0.000000
vt 0.812097 0.107311
vt 0.888972 0.072679
vt 0.500000 0.000000
vt 0.500000 0.072679
vt 0.111028 0.072679
vt 0.187903 0.107311
vt 0.500000 0.072679
vt 0.812097 0.107311
vt 0.888972 0.072679
vt 0.111028 0.072679
vt 0.187903 0.107311
vt 0.798490 0.476071
vt 0.862011 0.272180
vt 0.500000 0.268765
vt 0.500000 0.476071
vt 0.137989 0.272180
vt 0.201510 0.476071
vt 0.000000 0.268765
vt 0.089577 0.476071
vt 0.910423 0.476071
vt 1.000000 0.268765
vt 0.862010 0.272180
vt 0.798489 0.476071
vt 0.500000 0.268765
vt 0.500000 0.476071
vt 0.137989 0.272180
vt 0.201510 0.476071
vt 0.000000 0.268765
vt 0.089577 0.476071
vt 0.910423 0.476071
vt 1.000000 0.268765
vt 0.642778 0.645879
vt 0.705907 0.576317
vt 0.500000 0.576317
vt 0.500000 0.645879
vt 0.294093 0.576317
vt 0.357222 0.645879
vt 0.216878 0.576317
vt 0.303681 0.645879
vt 0.696319 0.645879
vt 0.783122 0.576317
vt 0.705907 0.576317
vt 0.642778 0.645879
vt 0.500000 0.576317
vt 0.500000 0.645879
vt 0.294093 0.576317
vt 0.357222 0.645879
vt 0.216878 0.576317
vt 0.303681 0.645879
vt 0.696319 0.645879
vt 0.783122 0.576317
vt 0.685798 0.903674
vt 0.639501 0.774777
vt 0.500000 0.774776
vt 0.500000 0.903674
vt 0.360499 0.774777
vt 0.314202 0.903674
vt 0.308186 0.774776
vt 0.244528 0.903673
vt 0.755472 0.903674
vt 0.691813 0.774776
vt 0.639501 0.774776
vt 0.685798 0.903674
vt 0.500000 0.774776
vt 0.500000 0.903674
vt 0.360499 0.774776
vt 0.314202 0.903674
vt 0.308186 0.774776
vt 0.244528 0.903674
vt 0.755472 0.903673
vt 0.691814 0.774776
vt 0.797160 1.000000
vt 0.755201 0.964051
vt 0.500000 0.964051
vt 0.500000 1.000000
vt 0.244799 0.964051
vt 0.202840 1.000000
vt 0.149099 0.964051
vt 0.091405 1.000000
vt 0.908595 1.000000
vt 0.850901 0.964051
vt 0.755201 0.964051
vt 0.797160 1.000000
vt 0.500000 0.964051
vt 0.500000 1.000000
vt 0.244799 0.964051
vt 0.202840 1.000000
vt 0.149099 0.964051
vt 0.091405 1.000000
vt 0.908595 1.000000
vt 0.850901 0.964051
vn -0.2619 0.9289 -0.2619
vn 0.2619 0.9289 -0.2619
vn 0.2619 0.9289 0.2619
vn -0.2619 0.9289 0.2619
vn -0.3419 -0.2386 -0.9089
vn 0.3419 -0.2386 -0.9089
vn 0.3150 0.2737 -0.9088
vn -0.3150 0.2737 -0.9088
vn 0.9089 -0.2386 -0.3419
vn 0.9089 -0.2386 0.3419
vn 0.9088 0.2737 0.3150
vn 0.9088 0.2737 -0.3150
vn 0.3419 -0.2386 0.9089
vn -0.3419 -0.2386 0.9089
vn -0.3150 0.2737 0.9088
vn 0.3150 0.2737 0.9088
vn -0.9089 -0.2386 0.3419
vn -0.9089 -0.2386 -0.3419
vn -0.9088 0.2737 -0.3150
vn -0.9088 0.2737 0.3150
vn -0.2860 -0.5803 -0.7626
vn 0.2860 -0.5803 -0.7626
vn 0.2843 -0.5870 -0.7580
vn -0.2843 -0.5870 -0.7580
vn 0.7626 -0.5803 -0.2860
vn 0.7626 -0.5803 0.2860
vn 0.7580 -0.5870 0.2843
vn 0.7580 -0.5870 -0.2843
vn 0.2860 -0.5803 0.7626
vn -0.2860 -0.5803 0.7626
vn -0.2843 -0.5870 0.7580
vn 0.2843 -0.5870 0.7580
vn -0.7626 -0.5803 0.2860
vn -0.7626 -0.5803 -0.2860
vn -0.7580 -0.5870 -0.2843
vn -0.7580 -0.5870 0.2843
vn -0.3379 0.2714 -0.9012
vn 0.3379 0.2714 -0.9012
vn 0.3511 -0.0200 -0.9361
vn -0.3511 -0.0200 -0.9361
vn 0.9012 0.2714 -0.3379
vn 0.9012 0.2714 0.3379
vn 0.9361 -0.0200 0.3511
vn 0.9361 -0.0200 -0.3511
vn 0.3379 0.2714 0.9012
vn -0.3379 0.2714 0.9012
vn -0.3511 -0.0200 0.9361
vn 0.3511 -0.0200 0.9361
vn -0.9012 0.2714 0.3379
vn -0.9012 0.2714 -0.3379
vn -0.9361 -0.0200 -0.3511
vn -0.9361 -0.0200 0.3511
vn -0.2589 0.6756 -0.6903
vn 0.2589 0.6756 -0.6903
vn 0.2607 0.6700 -0.6951
vn -0.2607 0.6700 -0.6951
vn 0.6903 0.6756 -0.2589
vn 0.6903 0.6756 0.2589
vn 0.6951 0.6700 0.2607
vn 0.6951 0.6700 -0.2607
vn 0.2589 0.6756 0.6903
vn -0.2589 0.6756 0.6903
vn -0.2607 0.6700 0.6951
vn 0.2607 0.6700 0.6951
vn -0.6903 0.6756 0.2589
vn -0.6903 0.6756 -0.2589
vn -0.6951 0.6700 -0.2607
vn -0.6951 0.6700 0.2607
usemtl glass_tier_6
s off
f 34/34/34 54/35/34 90/36/34 55/37/34
f 55/37/35 90/36/35 56/38/35 35/39/35
f 90/36/36 57/40/36 36/41/36 56/42/36
f 54/43/37 37/44/37 57/40/37 90/36/37
f 38/45/38 58/46/38 91/47/38 59/48/38
f 59/48/39 91/47/39 60/49/39 39/50/39
f 91/47/40 55/37/40 35/39/40 60/49/40
f 58/46/41 34/34/41 55/37/41 91/47/41
f 39/50/42 60/49/42 92/51/42 61/52/42
f 61/53/43 92/54/43 62/55/43 40/56/43
f 92/54/44 56/42/44 36/41/44 62/55/44
f 60/49/45 35/39/45 56/38/45 92/51/45
f 40/56/46 62/55/46 93/57/46 63/58/46
f 63/58/47 93/57/47 64/59/47 41/60/47
f 93/57/48 57/40/48 37/44/48 64/59/48
f 62/55/49 36/41/49 57/40/49 93/57/49
f 41/60/50 64/59/50 94/61/50 65/62/50
f 65/63/51 94/64/51 58/46/51 38/45/51
f 94/64/52 54/35/52 34/34/52 58/46/52
f 64/59/53 37/44/53 54/43/53 94/61/53
f 42/65/54 66/66/54 95/67/54 67/68/54
f 67/68/55 95/67/55 68/69/55 43/70/55
f 95/67/56 59/48/56 39/50/56 68/69/56
f 66/66/57 38/45/57 59/48/57 95/67/57
f 43/70/58 68/69/58 96/71/58 69/72/58
f 69/73/59 96/74/59 70/75/59 44/76/59
f 96/74/60 61/53/60 40/56/60 70/75/60
f 68/69/61 39/50/61 61/52/61 96/71/61
f 44/76/62 70/75/62 97/77/62 71/78/62
f 71/78/63 97/77/63 72/79/63 45/80/63
f 97/77/64 63/58/64 41/60/64 72/79/64
f 70/75/65 40/56/65 63/58/65 97/77/65
f 45/80/66 72/79/66 98/81/66 73/82/66
f 73/83/67 98/84/67 66/66/67 42/65/67
f 98/84/68 65/63/68 38/45/68 66/66/68
f 72/79/69 41/60/69 65/62/69 98/81/69
f 46/85/70 74/86/70 99/87/70 75/88/70
f 75/88/71 99/87/71 76/89/71 47/90/71
f 99/87/72 67/68/72 43/70/72 76/89/72
f 74/86/73 42/65/73 67/68/73 99/87/73
f 47/90/74 76/89/74 100/91/74 77/92/74
f 77/93/75 100/94/75 78/95/75 48/96/75
f 100/94/76 69/73/76 44/76/76 78/95/76
f 76/89/77 43/70/77 69/72/77 100/91/77
f 48/96/78 78/95/78 101/97/78 79/98/78
f 79/98/79 101/97/79 80/99/79 49/100/79
f 101/97/80 71/78/80 45/80/80 80/99/80
f 78/95/81 44/76/81 71/78/81 101/97/81
f 49/100/82 80/99/82 102/101/82 81/102/82
f 81/103/83 102/104/83 74/86/83 46/85/83
f 102/104/84 73/83/84 42/65/84 74/86/84
f 80/99/85 45/80/85 73/82/85 102/101/85
f 50/105/86 82/106/86 103/107/86 83/108/86
f 83/108/87 103/107/87 84/109/87 51/110/87
f 103/107/88 75/88/88 47/90/88 84/109/88
f 82/106/89 46/85/89 75/88/89 103/107/89
f 51/110/90 84/109/90 104/111/90 85/112/90
f 85/113/91 104/114/91 86/115/91 52/116/91
f 104/114/92 77/93/92 48/96/92 86/115/92
f 84/109/93 47/90/93 77/92/93 104/111/93
f 52/116/94 86/115/94 105/117/94 87/118/94
f 87/118/95 105/117/95 88/119/95 53/120/95
f 105/117/96 79/98/96 49/100/96 88/119/96
f 86/115/97 48/96/97 79/98/97 105/117/97
f 53/120/98 88/119/98 106/121/98 89/122/98
f 89/123/99 106/124/99 82/106/99 50/105/99
f 106/124/100 81/103/100 46/85/100 82/106/100
f 88/119/101 49/100/101 81/102/101 106/121/101
o gold_lid
v 0.000000 -0.050031 0.116362
v 0.000000 -0.050031 0.101441
v 0.000000 -0.062953 0.093980
v 0.000000 -0.075875 0.101441
v 0.000000 -0.075875 0.116362
v 0.000000 -0.062953 0.123822
v -0.084476 -0.050031 0.084476
v -0.073925 -0.050031 0.073925
v -0.068650 -0.062953 0.068650
v -0.073925 -0.075875 0.073925
v -0.084476 -0.075875 0.084476
v -0.089752 -0.062953 0.089752
v -0.116362 -0.050031 0.000000
v -0.101441 -0.050031 0.000000
v -0.093980 -0.062953 -0.000000
v -0.101441 -0.075875 0.000000
v -0.116362 -0.075875 0.000000
v -0.123822 -0.062953 0.000000
v -0.084476 -0.050031 -0.084476
v -0.073925 -0.050031 -0.073925
v -0.068650 -0.062953 -0.068650
v -0.073925 -0.075875 -0.073925
v -0.084476 -0.075875 -0.084476
v -0.089752 -0.062953 -0.089752
v -0.000000 -0.050031 -0.116362
v 0.000000 -0.050031 -0.101441
v 0.000000 -0.062953 -0.093980
v 0.000000 -0.075875 -0.101441
v -0.000000 -0.075875 -0.116362
v -0.000000 -0.062953 -0.123822
v 0.084476 -0.050031 -0.084476
v 0.073925 -0.050031 -0.073925
v 0.068650 -0.062953 -0.068650
v 0.073925 -0.075875 -0.073925
v 0.084476 -0.075875 -0.084476
v 0.089752 -0.062953 -0.089752
v 0.116362 -0.050031 -0.000000
v 0.101441 -0.050031 0.000000
v 0.093980 -0.062953 0.000000
v 0.101441 -0.075875 0.000000
v 0.116362 -0.075875 -0.000000
v 0.123822 -0.062953 -0.000000
v 0.084476 -0.050031 0.084476
v 0.073925 -0.050031 0.073925
v 0.068650 -0.062953 0.068650
v 0.073925 -0.075875 0.073925
v 0.084476 -0.075875 0.084476
v 0.089752 -0.062953 0.089752
vt 0.250000 0.124101
vt 0.113552 0.227105
vt 0.105031 0.210063
vt 0.250000 0.100000
vt 0.250000 0.172303
vt 0.130594 0.261189
vt 0.250000 0.196403
vt 0.139115 0.278230
vt 0.250000 0.172303
vt 0.130594 0.261189
vt 0.250000 0.124101
vt 0.113552 0.227105
vt 0.062050 0.500000
vt 0.050000 0.500000
vt 0.086151 0.500000
vt 0.098202 0.500000
vt 0.086151 0.500000
vt 0.062050 0.500000
vt 0.113552 0.772895
vt 0.105031 0.789937
vt 0.130594 0.738811
vt 0.139115 0.721769
vt 0.130594 0.738811
vt 0.113552 0.772895
vt 0.250000 0.875899
vt 0.250000 0.900000
vt 0.250000 0.827697
vt 0.250000 0.803596
vt 0.250000 0.827697
vt 0.250000 0.875899
vt 0.386448 0.772895
vt 0.394969 0.789937
vt 0.369406 0.738811
vt 0.360885 0.721769
vt 0.369406 0.738811
vt 0.386448 0.772895
vt 0.437950 0.500000
vt 0.450000 0.500000
vt 0.413849 0.500000
vt 0.401798 0.500000
vt 0.413849 0.500000
vt 0.437950 0.500000
vt 0.386448 0.227105
vt 0.394969 0.210063
vt 0.369406 0.261189
vt 0.360885 0.278230
vt 0.369406 0.261189
vt 0.386448 0.227105
vn -0.3124 0.4705 0.8253
vn 0.0000 1.0000 0.0000
vn 0.3067 0.4704 -0.8275
vn 0.3067 -0.4704 -0.8275
vn 0.0000 -1.0000 -0.0000
vn -0.3124 -0.4705 0.8253
vn -0.8253 0.4705 0.3124
vn 0.8275 0.4704 -0.3067
vn 0.8275 -0.4704 -0.3067
vn -0.8253 -0.4705 0.3124
vn -0.8253 0.4705 -0.3124
vn 0.8275 0.4704 0.3067
vn 0.8275 -0.4704 0.3067
vn -0.8253 -0.4705 -0.3124
vn -0.3124 0.4705 -0.8253
vn 0.3067 0.4704 0.8275
vn 0.3067 -0.4704 0.8275
vn -0.3124 -0.4705 -0.8253
vn 0.3124 0.4705 -0.8253
vn -0.3067 0.4704 0.8275
vn -0.3067 -0.4704 0.8275
vn 0.3124 -0.4705 -0.8253
vn 0.8253 0.4705 -0.3124
vn -0.8275 0.4704 0.3067
vn -0.8275 -0.4704 0.3067
vn 0.8253 -0.4705 -0.3124
vn 0.8253 0.4705 0.3124
vn -0.8275 0.4704 -0.3067
vn -0.8275 -0.4704 -0.3067
vn 0.8253 -0.4705 0.3124
vn 0.3124 0.4705 0.8253
vn -0.3067 0.4704 -0.8275
vn -0.3067 -0.4704 -0.8275
vn 0.3124 -0.4705 0.8253
usemtl lid
s off
f 107/125/102 113/126/102 118/127/102 112/128/102
f 108/129/103 114/130/103 113/126/103 107/125/103
f 109/131/104 115/132/104 114/130/104 108/129/104
f 110/133/105 116/134/105 115/132/105 109/131/105
f 111/135/106 117/136/106 116/134/106 110/133/106
f 112/128/107 118/127/107 117/136/107 111/135/107
f 113/126/108 119/137/108 124/138/108 118/127/108
f 114/130/103 120/139/103 119/137/103 113/126/103
f 115/132/109 121/140/109 120/139/109 114/130/109
f 116/134/110 122/141/110 121/140/110 115/132/110
f 117/136/106 123/142/106 122/141/106 116/134/106
f 118/127/111 124/138/111 123/142/111 117/136/111
f 119/137/112 125/143/112 130/144/112 124/138/112
f 120/139/103 126/145/103 125/143/103 119/137/103
f 121/140/113 127/146/113 126/145/113 120/139/113
f 122/141/114 128/147/114 127/146/114 121/140/114
f 123/142/106 129/148/106 128/147/106 122/141/106
f 124/138/115 130/144/115 129/148/115 123/142/115
f 125/143/116 131/149/116 136/150/116 130/144/116
f 126/145/103 132/151/103 131/149/103 125/143/103
f 127/146/117 133/152/117 132/151/117 126/145/117
f 128/147/118 134/153/118 133/152/118 127/146/118
f 129/148/106 135/154/106 134/153/106 128/147/106
f 130/144/119 136/150/119 135/154/119 129/148/119
f 131/149/120 137/155/120 142/156/120 136/150/120
f 132/151/103 138/157/103 137/155/103 131/149/103
f 133/152/121 139/158/121 138/157/121 132/151/121
f 134/153/122 140/159/122 139/158/122 133/152/122
f 135/154/106 141/160/106 140/159/106 134/153/106
f 136/150/123 142/156/123 141/160/123 135/154/123
f 137/155/124 143/161/124 148/162/124 142/156/124
f 138/157/103 144/163/103 143/161/103 137/155/103
f 139/158/125 145/164/125 144/163/125 138/157/125
f 140/159/126 146/165/126 145/164/126 139/158/126
f 141/160/106 147/166/106 146/165/106 140/159/106
f 142/156/127 148/162/127 147/166/127 141/160/127
f 143/161/128 149/167/128 154/168/128 148/162/128
f 144/163/103 150/169/103 149/167/103 143/161/103
f 145/164/129 151/170/129 150/169/129 144/163/129
f 146/165/130 152/171/130 151/170/130 145/164/130
f 147/166/106 153/172/106 152/171/106 146/165/106
f 148/162/131 154/168/131 153/172/131 147/166/131
f 149/167/132 107/125/132 112/128/132 154/168/132
f 150/169/103 108/129/103 107/125/103 149/167/103
f 151/170/133 109/131/133 108/129/133 150/169/133
f 152/171/134 110/133/134 109/131/134 151/170/134
f 153/172/106 111/135/106 110/133/106 152/171/106
f 154/168/135 112/128/135 111/135/135 153/172/135
o diamond_lid
v 0.000000 -0.157081 -0.000000
v 0.093524 -0.078664 -0.000000
v -0.068018 -0.078664 -0.068018
v 0.068018 -0.078664 0.068018
v 0.000000 -0.078664 0.093524
v -0.068018 -0.078664 0.068018
v -0.093524 -0.078664 0.000000
v -0.000000 -0.078664 -0.093524
v 0.068018 -0.078664 -0.068018
v 0.079201 -0.062953 -0.079201
v 0.108901 -0.062953 -0.000000
v 0.071356 -0.035991 -0.071356
v -0.000000 -0.062953 -0.108901
v -0.079201 -0.062953 -0.079201
v -0.000000 -0.035540 -0.097747
v 0.000000 -0.009611 -0.059775
v -0.071356 -0.035991 -0.071356
v -0.050705 -0.014190 -0.050705
v -0.097747 -0.035540 0.000000
v -0.059775 -0.009611 -0.000000
v -0.108901 -0.062953 0.000000
v -0.071356 -0.035991 0.071356
v -0.050705 -0.014190 0.050705
v -0.079201 -0.062953 0.079201
v 0.000000 -0.035540 0.097747
v 0.000000 -0.009611 0.059775
v 0.000000 -0.062953 0.108901
v 0.071356 -0.035991 0.071356
v 0.050705 -0.014190 0.050705
v 0.097747 -0.035540 -0.000000
v 0.079201 -0.062953 0.079201
v 0.059775 -0.009611 0.000000
v 0.050705 -0.014190 -0.050705
v -0.000000 -0.000000 0.000000
vt 0.878241 0.279777
vt 0.834619 0.194325
vt 0.950000 0.100000
vt 0.950000 0.322104
vt 0.814924 0.322104
vt 0.743165 0.279777
vt 0.814924 0.100000
vt 0.876549 0.543127
vt 0.834310 0.445916
vt 0.948377 0.362242
vt 0.743165 0.542018
vt 0.699543 0.456567
vt 0.814924 0.362242
vt 0.814924 0.584346
vt 0.699543 0.194325
vt 0.948377 0.584919
vt 0.864107 0.575717
vt 0.947745 0.624380
vt 0.814924 0.213454
vt 0.865718 0.312955
vt 0.727140 0.632208
vt 0.708746 0.747079
vt 0.679848 0.752003
vt 0.700937 0.624483
vt 0.579014 0.502579
vt 0.586473 0.639056
vt 0.558948 0.652135
vt 0.550000 0.500512
vt 0.814924 0.462523
vt 0.606493 0.393246
vt 0.581169 0.379301
vt 0.624976 0.518574
vt 0.620400 0.611161
vt 0.634626 0.436491
vt 0.889900 0.763653
vt 0.885324 0.856241
vt 0.851397 0.884135
vt 0.843938 0.747659
vt 0.823872 0.897214
vt 0.814924 0.745591
vt 0.899550 0.681571
vt 0.871417 0.638325
vt 0.846093 0.624380
vt 0.624041 0.237370
vt 0.623711 0.330542
vt 0.590913 0.363659
vt 0.576298 0.228989
vt 0.566873 0.379301
vt 0.550000 0.229772
vt 0.633820 0.151732
vt 0.605140 0.112023
vt 0.582663 0.100000
vt 0.755551 0.751875
vt 0.758487 0.844660
vt 0.727140 0.880435
vt 0.700938 0.900000
vt 0.949275 0.362242
vt 0.679848 0.475696
vt 0.730642 0.575196
vt 0.758487 0.668273
vt 0.679848 0.151854
vt 0.679848 0.255677
vt 0.672876 0.547901
vt 0.656960 0.652135
vt 0.921884 0.897214
vt 0.937800 0.792980
vt 0.667931 0.362649
vt 0.814199 0.624483
vt 0.679848 0.213454
vt 0.730642 0.312955
vt 0.814199 0.362242
vn -0.6246 0.7450 0.2342
vn -0.6246 0.7450 -0.2342
vn 0.6246 0.7450 0.2342
vn 0.2342 0.7450 0.6246
vn -0.2342 0.7450 -0.6246
vn 0.2342 0.7450 -0.6246
vn 0.6246 0.7450 -0.2342
vn -0.2342 0.7450 0.6246
vn -0.2589 0.6756 0.6903
vn -0.6903 0.6756 0.2589
vn 0.8763 0.3534 -0.3275
vn 0.3275 0.3534 -0.8763
vn 0.2589 0.6756 0.6903
vn -0.3275 0.3534 -0.8763
vn 0.1998 0.7931 -0.5754
vn -0.1998 0.7931 -0.5754
vn -0.5754 0.7931 -0.1998
vn -0.8763 0.3534 -0.3275
vn -0.5754 0.7931 0.1998
vn -0.8763 0.3534 0.3275
vn -0.1998 0.7931 0.5754
vn -0.3275 0.3534 0.8763
vn 0.1998 0.7931 0.5754
vn 0.3275 0.3534 0.8763
vn 0.5754 0.7931 0.1998
vn 0.8763 0.3534 0.3275
vn -0.6903 0.6756 -0.2589
vn -0.2589 0.6756 -0.6903
vn 0.5754 0.7931 -0.1998
vn 0.1373 0.9810 0.1373
vn 0.1373 0.9810 -0.1373
vn -0.1373 0.9810 -0.1373
vn -0.1373 0.9810 0.1373
vn 0.2589 0.6756 -0.6903
vn 0.6903 0.6756 -0.2589
vn 0.6903 0.6756 0.2589
usemtl lid
s off
f 156/173/136 163/174/136 155/175/136
f 158/176/137 156/173/137 155/175/137
f 157/177/138 161/178/138 155/179/138
f 162/180/139 157/181/139 155/182/139
f 159/183/140 158/184/140 155/185/140
f 160/186/141 159/183/141 155/185/141
f 161/178/142 160/187/142 155/179/142
f 163/188/143 162/180/143 155/182/143
f 167/189/144 162/180/144 163/188/144 164/190/144
f 164/191/145 163/174/145 156/173/145 165/192/145
f 166/193/146 184/194/146 165/195/146 164/196/146
f 169/197/147 166/198/147 164/199/147 167/200/147
f 168/201/148 157/181/148 162/180/148 167/189/148
f 171/202/149 169/197/149 167/200/149 168/203/149
f 170/204/150 187/205/150 166/198/150 169/197/150
f 172/206/151 170/204/151 169/197/151 171/202/151
f 174/207/152 172/208/152 171/209/152 173/210/152
f 173/210/153 171/209/153 168/211/153 175/212/153
f 177/213/154 174/207/154 173/210/154 176/214/154
f 176/214/155 173/210/155 175/212/155 178/215/155
f 180/216/156 177/217/156 176/218/156 179/219/156
f 179/219/157 176/218/157 178/220/157 181/221/157
f 183/222/158 180/216/158 179/219/158 182/223/158
f 182/223/159 179/219/159 181/221/159 185/224/159
f 186/225/160 183/226/160 182/227/160 184/194/160
f 184/194/161 182/227/161 185/228/161 165/195/161
f 165/192/162 156/173/162 158/176/162 185/229/162
f 185/230/163 158/184/163 159/183/163 181/231/163
f 187/232/164 186/225/164 184/194/164 166/193/164
f 186/233/165 188/234/165 180/216/165 183/222/165
f 187/205/166 170/204/166 188/235/166 186/236/166
f 170/237/167 172/208/167 174/207/167 188/238/167
f 188/234/168 174/239/168 177/217/168 180/216/168
f 181/231/169 159/183/169 160/186/169 178/240/169
f 178/241/170 160/187/170 161/178/170 175/242/170
f 175/242/171 161/178/171 157/177/171 168/243/171
