# Blender v2.90.1 OBJ File: 'tier_block.blend'
# www.blender.org
mtllib tier_block.mtl
o Y-_Cube.002
v -0.468750 0.468750 0.500000
v 0.468750 0.468750 0.500000
v -0.468750 -0.468750 0.500000
v 0.468750 -0.468750 0.500000
v 0.500000 0.500000 0.500000
v 0.500000 -0.500000 0.500000
v -0.500000 0.500000 0.500000
v -0.500000 -0.500000 0.500000
v 0.437500 -0.437500 0.437500
v 0.437500 0.437500 0.437500
v -0.437500 0.437500 0.437500
v -0.437500 -0.437500 0.437500
v 0.437500 -0.437500 0.437500
v 0.437500 0.437500 0.437500
v -0.437500 0.437500 0.437500
v -0.437500 -0.437500 0.437500
v -0.468750 0.468750 0.500000
v 0.468750 0.468750 0.500000
v 0.437500 0.437500 0.437500
v -0.437500 0.437500 0.437500
v -0.468750 -0.468750 0.500000
v 0.468750 -0.468750 0.500000
v 0.437500 -0.437500 0.437500
v -0.437500 -0.437500 0.437500
vt 0.031344 0.968656
vt 0.968656 0.968656
vt 0.999900 0.999900
vt 0.000100 0.999900
vt 0.968656 0.031344
vt 0.031344 0.031344
vt 0.000100 0.000100
vt 0.999900 0.000100
vt 0.937406 0.937406
vt 0.937406 0.062594
vt 0.968656 0.031344
vt 0.937406 0.062594
vt 0.062594 0.062594
vt 0.031344 0.031344
vt 0.062594 0.062594
vt 0.062594 0.937406
vt 0.062500 0.062500
vt 0.937500 0.062500
vt 0.937500 0.937500
vt 0.062500 0.937500
vt 0.031344 0.968656
vt 0.062594 0.937406
vt 0.937406 0.937406
vt 0.968656 0.968656
vn 0.0000 0.0000 1.0000
vn -0.8944 -0.0000 0.4472
vn -0.0000 0.8944 0.4472
vn 0.8944 0.0000 0.4472
vn 0.0000 -0.8944 0.4472
usemtl tier_1_block
s off
f 1/1/1 2/2/1 5/3/1 7/4/1
f 4/5/1 3/6/1 8/7/1 6/8/1
f 3/6/1 1/1/1 7/4/1 8/7/1
f 2/2/1 4/5/1 6/8/1 5/3/1
f 2/2/2 10/9/2 9/10/2 4/5/2
f 22/11/3 23/12/3 24/13/3 21/14/3
f 3/6/4 12/15/4 11/16/4 1/1/4
f 16/17/1 13/18/1 14/19/1 15/20/1
f 17/21/5 20/22/5 19/23/5 18/24/5
o Z+_Cube.003
v -0.468750 0.500000 -0.468750
v 0.468750 0.500000 -0.468750
v -0.468750 0.500000 0.468750
v 0.468750 0.500000 0.468750
v 0.500000 0.500000 -0.500000
v 0.500000 0.500000 0.500000
v -0.500000 0.500000 -0.500000
v -0.500000 0.500000 0.500000
v 0.437500 0.437500 0.437500
v 0.437500 0.437500 -0.437500
v -0.437500 0.437500 -0.437500
v -0.437500 0.437500 0.437500
v 0.437500 0.437500 0.437500
v 0.437500 0.437500 -0.437500
v -0.437500 0.437500 -0.437500
v -0.437500 0.437500 0.437500
v -0.468750 0.500000 -0.468750
v 0.468750 0.500000 -0.468750
v 0.437500 0.437500 -0.437500
v -0.437500 0.437500 -0.437500
v -0.468750 0.500000 0.468750
v 0.468750 0.500000 0.468750
v 0.437500 0.437500 0.437500
v -0.437500 0.437500 0.437500
vt 0.031344 0.968656
vt 0.968656 0.968656
vt 0.999900 0.999900
vt 0.000100 0.999900
vt 0.968656 0.031344
vt 0.031344 0.031344
vt 0.000100 0.000100
vt 0.999900 0.000100
vt 0.937406 0.937406
vt 0.937406 0.062594
vt 0.968656 0.031344
vt 0.937406 0.062594
vt 0.062594 0.062594
vt 0.031344 0.031344
vt 0.062594 0.062594
vt 0.062594 0.937406
vt 0.062500 0.062500
vt 0.937500 0.062500
vt 0.937500 0.937500
vt 0.062500 0.937500
vt 0.031344 0.968656
vt 0.062594 0.937406
vt 0.937406 0.937406
vt 0.968656 0.968656
vn 0.0000 1.0000 0.0000
vn -0.8944 0.4472 0.0000
vn -0.0000 0.4472 -0.8944
vn 0.8944 0.4472 -0.0000
vn 0.0000 0.4472 0.8944
usemtl tier_1_block
s off
f 25/25/6 26/26/6 29/27/6 31/28/6
f 28/29/6 27/30/6 32/31/6 30/32/6
f 27/30/6 25/25/6 31/28/6 32/31/6
f 26/26/6 28/29/6 30/32/6 29/27/6
f 26/26/7 34/33/7 33/34/7 28/29/7
f 46/35/8 47/36/8 48/37/8 45/38/8
f 27/30/9 36/39/9 35/40/9 25/25/9
f 40/41/6 37/42/6 38/43/6 39/44/6
f 41/45/10 44/46/10 43/47/10 42/48/10
o Z-_Cube.005
v -0.468750 -0.500000 0.468750
v 0.468750 -0.500000 0.468750
v -0.468750 -0.500000 -0.468750
v 0.468750 -0.500000 -0.468750
v 0.500000 -0.500000 0.500000
v 0.500000 -0.500000 -0.500000
v -0.500000 -0.500000 0.500000
v -0.500000 -0.500000 -0.500000
v 0.437500 -0.437500 -0.437500
v 0.437500 -0.437500 0.437500
v -0.437500 -0.437500 0.437500
v -0.437500 -0.437500 -0.437500
v 0.437500 -0.437500 -0.437500
v 0.437500 -0.437500 0.437500
v -0.437500 -0.437500 0.437500
v -0.437500 -0.437500 -0.437500
v -0.468750 -0.500000 0.468750
v 0.468750 -0.500000 0.468750
v 0.437500 -0.437500 0.437500
v -0.437500 -0.437500 0.437500
v -0.468750 -0.500000 -0.468750
v 0.468750 -0.500000 -0.468750
v 0.437500 -0.437500 -0.437500
v -0.437500 -0.437500 -0.437500
vt 0.031344 0.968656
vt 0.968656 0.968656
vt 0.999900 0.999900
vt 0.000100 0.999900
vt 0.968656 0.031344
vt 0.031344 0.031344
vt 0.000100 0.000100
vt 0.999900 0.000100
vt 0.937406 0.937406
vt 0.937406 0.062594
vt 0.968656 0.031344
vt 0.937406 0.062594
vt 0.062594 0.062594
vt 0.031344 0.031344
vt 0.062594 0.062594
vt 0.062594 0.937406
vt 0.062500 0.062500
vt 0.937500 0.062500
vt 0.937500 0.937500
vt 0.062500 0.937500
vt 0.031344 0.968656
vt 0.062594 0.937406
vt 0.937406 0.937406
vt 0.968656 0.968656
vn 0.0000 -1.0000 0.0000
vn -0.8944 -0.4472 0.0000
vn -0.0000 -0.4472 0.8944
vn 0.8944 -0.4472 0.0000
vn 0.0000 -0.4472 -0.8944
usemtl tier_1_block
s off
f 49/49/11 50/50/11 53/51/11 55/52/11
f 52/53/11 51/54/11 56/55/11 54/56/11
f 51/54/11 49/49/11 55/52/11 56/55/11
f 50/50/11 52/53/11 54/56/11 53/51/11
f 50/50/12 58/57/12 57/58/12 52/53/12
f 70/59/13 71/60/13 72/61/13 69/62/13
f 51/54/14 60/63/14 59/64/14 49/49/14
f 64/65/11 61/66/11 62/67/11 63/68/11
f 65/69/15 68/70/15 67/71/15 66/72/15
o X+_Cube.006
v 0.500000 0.468750 0.468750
v 0.500000 0.468750 -0.468750
v 0.500000 -0.468750 0.468750
v 0.500000 -0.468750 -0.468750
v 0.500000 0.500000 -0.500000
v 0.500000 -0.500000 -0.500000
v 0.500000 0.500000 0.500000
v 0.500000 -0.500000 0.500000
v 0.437500 -0.437500 -0.437500
v 0.437500 0.437500 -0.437500
v 0.437500 0.437500 0.437500
v 0.437500 -0.437500 0.437500
v 0.437500 -0.437500 -0.437500
v 0.437500 0.437500 -0.437500
v 0.437500 0.437500 0.437500
v 0.437500 -0.437500 0.437500
v 0.500000 0.468750 0.468750
v 0.500000 0.468750 -0.468750
v 0.437500 0.437500 -0.437500
v 0.437500 0.437500 0.437500
v 0.500000 -0.468750 0.468750
v 0.500000 -0.468750 -0.468750
v 0.437500 -0.437500 -0.437500
v 0.437500 -0.437500 0.437500
vt 0.031344 0.968656
vt 0.968656 0.968656
vt 0.999900 0.999900
vt 0.000100 0.999900
vt 0.968656 0.031344
vt 0.031344 0.031344
vt 0.000100 0.000100
vt 0.999900 0.000100
vt 0.937406 0.937406
vt 0.937406 0.062594
vt 0.968656 0.031344
vt 0.937406 0.062594
vt 0.062594 0.062594
vt 0.031344 0.031344
vt 0.062594 0.062594
vt 0.062594 0.937406
vt 0.062500 0.062500
vt 0.937500 0.062500
vt 0.937500 0.937500
vt 0.062500 0.937500
vt 0.031344 0.968656
vt 0.062594 0.937406
vt 0.937406 0.937406
vt 0.968656 0.968656
vn 1.0000 0.0000 -0.0000
vn 0.4472 -0.0000 0.8944
vn 0.4472 0.8944 0.0000
vn 0.4472 0.0000 -0.8944
vn 0.4472 -0.8944 -0.0000
usemtl tier_1_block
s off
f 73/73/16 74/74/16 77/75/16 79/76/16
f 76/77/16 75/78/16 80/79/16 78/80/16
f 75/78/16 73/73/16 79/76/16 80/79/16
f 74/74/16 76/77/16 78/80/16 77/75/16
f 74/74/17 82/81/17 81/82/17 76/77/17
f 94/83/18 95/84/18 96/85/18 93/86/18
f 75/78/19 84/87/19 83/88/19 73/73/19
f 88/89/16 85/90/16 86/91/16 87/92/16
f 89/93/20 92/94/20 91/95/20 90/96/20
o Y+_Cube.007
v 0.468750 0.468750 -0.500000
v -0.468750 0.468750 -0.500000
v 0.468750 -0.468750 -0.500000
v -0.468750 -0.468750 -0.500000
v -0.500000 0.500000 -0.500000
v -0.500000 -0.500000 -0.500000
v 0.500000 0.500000 -0.500000
v 0.500000 -0.500000 -0.500000
v -0.437500 -0.437500 -0.437500
v -0.437500 0.437500 -0.437500
v 0.437500 0.437500 -0.437500
v 0.437500 -0.437500 -0.437500
v -0.437500 -0.437500 -0.437500
v -0.437500 0.437500 -0.437500
v 0.437500 0.437500 -0.437500
v 0.437500 -0.437500 -0.437500
v 0.468750 0.468750 -0.500000
v -0.468750 0.468750 -0.500000
v -0.437500 0.437500 -0.437500
v 0.437500 0.437500 -0.437500
v 0.468750 -0.468750 -0.500000
v -0.468750 -0.468750 -0.500000
v -0.437500 -0.437500 -0.437500
v 0.437500 -0.437500 -0.437500
vt 0.031344 0.968656
vt 0.968656 0.968656
vt 0.999900 0.999900
vt 0.000100 0.999900
vt 0.968656 0.031344
vt 0.031344 0.031344
vt 0.000100 0.000100
vt 0.999900 0.000100
vt 0.937406 0.937406
vt 0.937406 0.062594
vt 0.968656 0.031344
vt 0.937406 0.062594
vt 0.062594 0.062594
vt 0.031344 0.031344
vt 0.062594 0.062594
vt 0.062594 0.937406
vt 0.062500 0.062500
vt 0.937500 0.062500
vt 0.937500 0.937500
vt 0.062500 0.937500
vt 0.031344 0.968656
vt 0.062594 0.937406
vt 0.937406 0.937406
vt 0.968656 0.968656
vn -0.0000 0.0000 -1.0000
vn 0.8944 -0.0000 -0.4472
vn -0.0000 0.8944 -0.4472
vn -0.8944 0.0000 -0.4472
vn -0.0000 -0.8944 -0.4472
usemtl tier_1_block
s off
f 97/97/21 98/98/21 101/99/21 103/100/21
f 100/101/21 99/102/21 104/103/21 102/104/21
f 99/102/21 97/97/21 103/100/21 104/103/21
f 98/98/21 100/101/21 102/104/21 101/99/21
f 98/98/22 106/105/22 105/106/22 100/101/22
f 118/107/23 119/108/23 120/109/23 117/110/23
f 99/102/24 108/111/24 107/112/24 97/97/24
f 112/113/21 109/114/21 110/115/21 111/116/21
f 113/117/25 116/118/25 115/119/25 114/120/25
o X-_Cube.008
v -0.500000 0.468750 -0.468750
v -0.500000 0.468750 0.468750
v -0.500000 -0.468750 -0.468750
v -0.500000 -0.468750 0.468750
v -0.500000 0.500000 0.500000
v -0.500000 -0.500000 0.500000
v -0.500000 0.500000 -0.500000
v -0.500000 -0.500000 -0.500000
v -0.437500 -0.437500 0.437500
v -0.437500 0.437500 0.437500
v -0.437500 0.437500 -0.437500
v -0.437500 -0.437500 -0.437500
v -0.437500 -0.437500 0.437500
v -0.437500 0.437500 0.437500
v -0.437500 0.437500 -0.437500
v -0.437500 -0.437500 -0.437500
v -0.500000 0.468750 -0.468750
v -0.500000 0.468750 0.468750
v -0.437500 0.437500 0.437500
v -0.437500 0.437500 -0.437500
v -0.500000 -0.468750 -0.468750
v -0.500000 -0.468750 0.468750
v -0.437500 -0.437500 0.437500
v -0.437500 -0.437500 -0.437500
vt 0.031344 0.968656
vt 0.968656 0.968656
vt 0.999900 0.999900
vt 0.000100 0.999900
vt 0.968656 0.031344
vt 0.031344 0.031344
vt 0.000100 0.000100
vt 0.999900 0.000100
vt 0.937406 0.937406
vt 0.937406 0.062594
vt 0.968656 0.031344
vt 0.937406 0.062594
vt 0.062594 0.062594
vt 0.031344 0.031344
vt 0.062594 0.062594
vt 0.062594 0.937406
vt 0.062500 0.062500
vt 0.937500 0.062500
vt 0.937500 0.937500
vt 0.062500 0.937500
vt 0.031344 0.968656
vt 0.062594 0.937406
vt 0.937406 0.937406
vt 0.968656 0.968656
vn -1.0000 0.0000 0.0000
vn -0.4472 -0.0000 -0.8944
vn -0.4472 0.8944 0.0000
vn -0.4472 0.0000 0.8944
vn -0.4472 -0.8944 0.0000
usemtl tier_1_block
s off
f 121/121/26 122/122/26 125/123/26 127/124/26
f 124/125/26 123/126/26 128/127/26 126/128/26
f 123/126/26 121/121/26 127/124/26 128/127/26
f 122/122/26 124/125/26 126/128/26 125/123/26
f 122/122/27 130/129/27 129/130/27 124/125/27
f 142/131/28 143/132/28 144/133/28 141/134/28
f 123/126/29 132/135/29 131/136/29 121/121/29
f 136/137/26 133/138/26 134/139/26 135/140/26
f 137/141/30 140/142/30 139/143/30 138/144/30
